# xmcd CD database file
#
# Track frame offsets:
#	150
#	19006
#	37055
#
# Disc length: 744 seconds
#
# Revision: 1
# Processed by: cddbd v1.5.2PL0 Copyright (c) Steve Scherf et al.
# Submitted via: CDex 1.70beta2
#
DISCID=1d02e603
DTITLE=PINC INC - デンジャラス・ラブ
DYEAR=2008
DGENRE=Rock
TTITLE0=デンジャラス・ラブ
TTITLE1=キミの1番になりたい
TTITLE2=デンジャラス・ラブ (INSTRUMENTAL)
EXTD=YEAR: 2008
EXTT0=
EXTT1=
EXTT2=
PLAYORDER=
